<svg width="322" height="252" viewBox="0 0 322 252" fill="none" xmlns="http://www.w3.org/2000/svg">
<path fill-rule="evenodd" clip-rule="evenodd" d="M186.888 170.99C221.606 167.308 257.547 158.443 285.155 139.734C295.202 132.927 302.926 124.68 310.922 116.294C311.484 115.707 311.389 114.859 310.709 114.403C310.025 113.949 309.015 114.059 308.452 114.651C300.609 122.874 293.055 130.979 283.202 137.653C255.986 156.097 220.514 164.754 186.295 168.346L186.205 167.909C185.247 163.156 179.786 158.616 172.131 154.987C161.16 149.784 145.769 146.318 134.306 146.152C129.155 146.078 124.769 146.687 121.82 148.014C119.519 149.047 118.016 150.514 117.454 152.39C116.26 156.386 119.441 160.126 125.384 163.132C137.809 169.422 162.216 172.958 173.277 172.185C176.73 171.943 180.21 171.655 183.702 171.313C183.898 172.145 184.085 172.959 184.225 173.76C184.615 176.042 184.607 178.243 183.098 180.639C180.741 184.371 176.601 187.219 171.806 189.443C164.319 192.909 155.223 194.835 148.295 195.967C109.712 202.272 79.4314 191.586 55.8803 176.819C32.0991 161.901 15.1316 142.827 3.38782 132.599C2.78503 132.072 1.7726 132.077 1.12562 132.603C0.478638 133.13 0.445138 133.986 1.05143 134.511C12.8699 144.806 29.9718 163.988 53.9143 179.002C78.087 194.166 109.19 205.087 148.797 198.618C156.014 197.439 165.476 195.409 173.271 191.798C178.666 189.297 183.262 186.039 185.914 181.839C188.292 178.069 187.729 174.707 186.888 170.99ZM183.091 168.667L183.049 168.449C182.212 164.294 177.181 160.524 170.488 157.352C159.946 152.351 145.159 149.011 134.138 148.853C130.359 148.796 127.042 149.112 124.537 149.899C122.472 150.55 120.993 151.504 120.561 152.962C120.145 154.337 120.586 155.633 121.597 156.85C122.78 158.28 124.7 159.59 127.1 160.806C139.04 166.849 162.495 170.239 173.122 169.496C176.423 169.262 179.748 168.989 183.091 168.667Z" fill="url(#paint0_linear_1_283)"/>
<path fill-rule="evenodd" clip-rule="evenodd" d="M311.559 110.904C311.823 111.443 311.913 112.265 311.996 113.15C312.198 115.257 312.047 117.717 312.032 118.878C312.024 119.624 312.737 120.21 313.62 120.193C314.506 120.173 315.229 119.554 315.236 118.808C315.253 117.386 315.446 114.108 315.045 111.722C314.829 110.442 314.404 109.392 313.83 108.797C312.853 107.782 311.274 107.72 309.254 108.972C306.865 110.454 303.166 114.116 298.416 115.141C297.555 115.325 297.008 116.065 297.2 116.784C297.391 117.507 298.246 117.941 299.111 117.755C303.639 116.776 307.389 113.748 310.027 111.851C310.529 111.49 311.173 111.119 311.559 110.904Z" fill="url(#paint1_linear_1_283)"/>
<defs>
<linearGradient id="paint0_linear_1_283" x1="5.80284" y1="142.276" x2="303.398" y2="178.789" gradientUnits="userSpaceOnUse">
<stop offset="0.877092" stop-color="#E50F1C"/>
<stop offset="1" stop-color="#920000" stop-opacity="0.89"/>
</linearGradient>
<linearGradient id="paint1_linear_1_283" x1="297.032" y1="116.873" x2="319.659" y2="117.778" gradientUnits="userSpaceOnUse">
<stop offset="0.877092" stop-color="#E50F1C"/>
<stop offset="1" stop-color="#920000" stop-opacity="0.89"/>
</linearGradient>
</defs>
</svg>
