<svg width="25" height="25" viewBox="0 0 25 25" fill="none" xmlns="http://www.w3.org/2000/svg">
<path d="M17.7082 2.08315C19.0883 2.08727 20.4108 2.63737 21.3867 3.61329C22.3626 4.58922 22.9127 5.91169 22.9169 7.29185V17.7081C22.9127 19.0883 22.3626 20.4108 21.3867 21.3867C20.4108 22.3626 19.0883 22.9127 17.7082 22.9169H7.29185C5.91169 22.9127 4.58923 22.3626 3.6133 21.3867C2.63737 20.4108 2.08727 19.0883 2.08315 17.7081V7.29185C2.08727 5.91169 2.63737 4.58922 3.6133 3.61329C4.58923 2.63737 5.91169 2.08727 7.29185 2.08315H17.7082ZM17.7082 0H7.29185C3.28125 0 0 3.28125 0 7.29185V17.7081C0 21.7188 3.28125 25 7.29185 25H17.7082C21.7188 25 25 21.7188 25 17.7081V7.29185C25 3.28125 21.7188 0 17.7082 0Z" fill="white"/>
<path d="M19.2706 7.29163C18.9616 7.29163 18.6595 7.19999 18.4026 7.02829C18.1456 6.8566 17.9453 6.61256 17.8271 6.32703C17.7088 6.04151 17.6779 5.72733 17.7382 5.42423C17.7985 5.12112 17.9473 4.8427 18.1658 4.62417C18.3843 4.40564 18.6627 4.25682 18.9658 4.19653C19.2689 4.13624 19.5831 4.16718 19.8686 4.28545C20.1541 4.40371 20.3981 4.60399 20.5698 4.86095C20.7415 5.11792 20.8331 5.42002 20.8331 5.72907C20.8336 5.93439 20.7935 6.13778 20.7151 6.32756C20.6367 6.51733 20.5217 6.68977 20.3765 6.83495C20.2313 6.98014 20.0589 7.09522 19.8691 7.17359C19.6793 7.25196 19.476 7.29207 19.2706 7.29163ZM12.5 8.33297C13.3241 8.33297 14.1297 8.57736 14.815 9.03524C15.5002 9.49312 16.0343 10.1439 16.3497 10.9053C16.665 11.6668 16.7476 12.5046 16.5868 13.3129C16.426 14.1213 16.0291 14.8637 15.4464 15.4465C14.8637 16.0293 14.1212 16.4262 13.3129 16.5869C12.5046 16.7477 11.6668 16.6652 10.9054 16.3498C10.144 16.0344 9.49325 15.5003 9.03539 14.8151C8.57753 14.1298 8.33315 13.3241 8.33315 12.5C8.33433 11.3952 8.77372 10.336 9.5549 9.55477C10.3361 8.77355 11.3952 8.33415 12.5 8.33297ZM12.5 6.24974C11.2639 6.24974 10.0555 6.61631 9.02769 7.30309C7.99988 7.98988 7.1988 8.96604 6.72576 10.1081C6.25271 11.2502 6.12894 12.5069 6.37009 13.7194C6.61125 14.9318 7.20651 16.0455 8.08058 16.9196C8.95466 17.7937 10.0683 18.389 11.2807 18.6301C12.4931 18.8713 13.7497 18.7475 14.8918 18.2745C16.0338 17.8014 17.0099 17.0003 17.6967 15.9724C18.3834 14.9446 18.75 13.7362 18.75 12.5C18.75 10.8423 18.0915 9.25254 16.9194 8.08039C15.7473 6.90824 14.1576 6.24974 12.5 6.24974Z" fill="white"/>
</svg>
