<svg width="26" height="25" viewBox="0 0 26 25" fill="none" xmlns="http://www.w3.org/2000/svg">
<path d="M23.4015 0H2.53704C1.39697 0 0.400879 0.820312 0.400879 1.94699V22.8577C0.400879 23.9905 1.39697 25 2.53704 25H23.3953C24.5415 25 25.4009 23.9838 25.4009 22.8577V1.94699C25.4076 0.820312 24.5415 0 23.4015 0ZM8.15033 20.8387H4.56885V9.70312H8.15033V20.8387ZM6.48348 8.01004H6.45781C5.3116 8.01004 4.56941 7.15681 4.56941 6.08873C4.56941 5.00112 5.33113 4.16797 6.50301 4.16797C7.67489 4.16797 8.39196 4.99498 8.41763 6.08873C8.41708 7.15681 7.67489 8.01004 6.48348 8.01004ZM21.2396 20.8387H17.6582V14.75C17.6582 13.2913 17.137 12.2946 15.8412 12.2946C14.8512 12.2946 14.2653 12.9643 14.0047 13.6166C13.907 13.851 13.8808 14.1702 13.8808 14.4961V20.8387H10.2993V9.70312H13.8808V11.2528C14.402 10.5106 15.2162 9.44252 17.1107 9.44252C19.4617 9.44252 21.2402 10.9922 21.2402 14.3331L21.2396 20.8387Z" fill="white"/>
</svg>
