<svg width="141" height="42" viewBox="0 0 141 42" fill="none" xmlns="http://www.w3.org/2000/svg">
<path d="M63.6464 29.2127C58.8207 29.2127 55.0974 25.3914 55.0974 20.6393C55.0974 15.8871 58.7717 12.0903 63.6464 12.0903C66.4633 12.0903 69.2558 13.5111 70.4806 16.1566L67.5656 17.7978C66.7328 16.3281 65.459 15.4462 63.4994 15.4462C60.7314 15.4462 58.7717 17.6998 58.7717 20.6883C58.7717 23.7747 60.7559 25.9548 63.6464 25.9548C65.2631 25.9548 66.4388 25.5384 67.1982 24.7545L67.1737 21.1047H70.6521V25.9548C69.4518 27.7675 66.9043 29.2127 63.6464 29.2127Z" fill="white"/>
<path d="M63.6464 29.2127C58.8207 29.2127 55.0974 25.3914 55.0974 20.6393C55.0974 15.8871 58.7717 12.0903 63.6464 12.0903C66.4633 12.0903 69.2558 13.5111 70.4806 16.1566L67.5656 17.7978C66.7328 16.3281 65.459 15.4462 63.4994 15.4462C60.7314 15.4462 58.7717 17.6998 58.7717 20.6883C58.7717 23.7747 60.7559 25.9548 63.6464 25.9548C65.2631 25.9548 66.4388 25.5384 67.1982 24.7545L67.1737 21.1047H70.6521V25.9548C69.4518 27.7675 66.9043 29.2127 63.6464 29.2127Z" fill="url(#paint0_linear_1_31)"/>
<path d="M78.6332 29.1882C75.1059 29.1882 72.6318 26.2977 72.6318 22.7704C72.6318 19.292 75.4733 16.377 79.1966 16.377C82.9934 16.377 85.7859 19.1206 85.7859 22.7704V28.8698H82.479V27.449C81.6217 28.5268 80.2989 29.1882 78.6332 29.1882ZM79.1966 25.9303C80.9848 25.9303 82.3075 24.5096 82.3075 22.7949C82.3075 21.0802 80.9848 19.6595 79.1966 19.6595C77.4084 19.6595 76.1102 21.0802 76.1102 22.7949C76.1102 24.5096 77.4084 25.9303 79.1966 25.9303Z" fill="white"/>
<path d="M78.6332 29.1882C75.1059 29.1882 72.6318 26.2977 72.6318 22.7704C72.6318 19.292 75.4733 16.377 79.1966 16.377C82.9934 16.377 85.7859 19.1206 85.7859 22.7704V28.8698H82.479V27.449C81.6217 28.5268 80.2989 29.1882 78.6332 29.1882ZM79.1966 25.9303C80.9848 25.9303 82.3075 24.5096 82.3075 22.7949C82.3075 21.0802 80.9848 19.6595 79.1966 19.6595C77.4084 19.6595 76.1102 21.0802 76.1102 22.7949C76.1102 24.5096 77.4084 25.9303 79.1966 25.9303Z" fill="url(#paint1_linear_1_31)"/>
<path d="M103.983 16.3036C107.926 16.3036 109.935 19.145 109.935 22.5254V28.8698H106.457V23.1133C106.457 21.2517 105.648 19.6839 103.738 19.6839C101.852 19.6839 101.043 21.2272 101.043 23.0643V28.8698H97.5648V23.0888C97.5648 21.2272 96.7565 19.6839 94.8703 19.6839C92.9352 19.6839 92.1758 21.2517 92.1758 23.0888V28.8698H88.6974V22.5254C88.6974 19.145 90.6816 16.3036 94.6009 16.3036C96.9279 16.3036 98.6181 17.3324 99.3285 18.9981C100.088 17.3324 101.803 16.3036 103.983 16.3036Z" fill="white"/>
<path d="M103.983 16.3036C107.926 16.3036 109.935 19.145 109.935 22.5254V28.8698H106.457V23.1133C106.457 21.2517 105.648 19.6839 103.738 19.6839C101.852 19.6839 101.043 21.2272 101.043 23.0643V28.8698H97.5648V23.0888C97.5648 21.2272 96.7565 19.6839 94.8703 19.6839C92.9352 19.6839 92.1758 21.2517 92.1758 23.0888V28.8698H88.6974V22.5254C88.6974 19.145 90.6816 16.3036 94.6009 16.3036C96.9279 16.3036 98.6181 17.3324 99.3285 18.9981C100.088 17.3324 101.803 16.3036 103.983 16.3036Z" fill="url(#paint2_linear_1_31)"/>
<path d="M118.247 29.1882C114.72 29.1882 112.246 26.2977 112.246 22.7704C112.246 19.292 115.087 16.377 118.81 16.377C122.607 16.377 125.4 19.1206 125.4 22.7704V28.8698H122.093V27.449C121.236 28.5268 119.913 29.1882 118.247 29.1882ZM118.81 25.9303C120.599 25.9303 121.921 24.5096 121.921 22.7949C121.921 21.0802 120.599 19.6595 118.81 19.6595C117.022 19.6595 115.724 21.0802 115.724 22.7949C115.724 24.5096 117.022 25.9303 118.81 25.9303Z" fill="white"/>
<path d="M118.247 29.1882C114.72 29.1882 112.246 26.2977 112.246 22.7704C112.246 19.292 115.087 16.377 118.81 16.377C122.607 16.377 125.4 19.1206 125.4 22.7704V28.8698H122.093V27.449C121.236 28.5268 119.913 29.1882 118.247 29.1882ZM118.81 25.9303C120.599 25.9303 121.921 24.5096 121.921 22.7949C121.921 21.0802 120.599 19.6595 118.81 19.6595C117.022 19.6595 115.724 21.0802 115.724 22.7949C115.724 24.5096 117.022 25.9303 118.81 25.9303Z" fill="url(#paint3_linear_1_31)"/>
<path d="M134.631 19.7819C132.672 19.7819 131.79 21.3741 131.79 23.2358V28.8698H128.311V22.8194C128.311 19.292 130.393 16.4015 134.631 16.4015C138.869 16.4015 141 19.2675 141 22.8194V28.8698H137.522V23.2358C137.522 21.3741 136.615 19.7819 134.631 19.7819Z" fill="white"/>
<path d="M134.631 19.7819C132.672 19.7819 131.79 21.3741 131.79 23.2358V28.8698H128.311V22.8194C128.311 19.292 130.393 16.4015 134.631 16.4015C138.869 16.4015 141 19.2675 141 22.8194V28.8698H137.522V23.2358C137.522 21.3741 136.615 19.7819 134.631 19.7819Z" fill="url(#paint4_linear_1_31)"/>
<path fill-rule="evenodd" clip-rule="evenodd" d="M20.9962 41.9923C32.592 41.9923 41.9923 32.592 41.9923 20.9962C41.9923 9.40032 32.592 0 20.9962 0C9.40028 0 0 9.40032 0 20.9962C0 32.592 9.40028 41.9923 20.9962 41.9923ZM27.5462 9.7809C27.8651 8.64838 26.766 7.97869 25.7623 8.69378L11.7506 18.6757C10.6621 19.4512 10.8333 20.9962 12.0078 20.9962H15.6975V20.9676H22.8885L17.0292 23.035L14.4461 32.2115C14.1273 33.344 15.2262 34.0137 16.2301 33.2986L30.2417 23.3168C31.3303 22.5413 31.159 20.9962 29.9845 20.9962H24.3893L27.5462 9.7809Z" fill="white"/>
<path fill-rule="evenodd" clip-rule="evenodd" d="M20.9962 41.9923C32.592 41.9923 41.9923 32.592 41.9923 20.9962C41.9923 9.40032 32.592 0 20.9962 0C9.40028 0 0 9.40032 0 20.9962C0 32.592 9.40028 41.9923 20.9962 41.9923ZM27.5462 9.7809C27.8651 8.64838 26.766 7.97869 25.7623 8.69378L11.7506 18.6757C10.6621 19.4512 10.8333 20.9962 12.0078 20.9962H15.6975V20.9676H22.8885L17.0292 23.035L14.4461 32.2115C14.1273 33.344 15.2262 34.0137 16.2301 33.2986L30.2417 23.3168C31.3303 22.5413 31.159 20.9962 29.9845 20.9962H24.3893L27.5462 9.7809Z" fill="url(#paint5_linear_1_31)"/>
<defs>
<linearGradient id="paint0_linear_1_31" x1="97.7352" y1="5.53283" x2="97.7352" y2="46.1529" gradientUnits="userSpaceOnUse">
<stop stop-color="#E50F1C"/>
<stop offset="1" stop-color="#920000" stop-opacity="0.89"/>
</linearGradient>
<linearGradient id="paint1_linear_1_31" x1="97.7352" y1="5.53283" x2="97.7352" y2="46.1529" gradientUnits="userSpaceOnUse">
<stop stop-color="#E50F1C"/>
<stop offset="1" stop-color="#920000" stop-opacity="0.89"/>
</linearGradient>
<linearGradient id="paint2_linear_1_31" x1="97.7352" y1="5.53283" x2="97.7352" y2="46.1529" gradientUnits="userSpaceOnUse">
<stop stop-color="#E50F1C"/>
<stop offset="1" stop-color="#920000" stop-opacity="0.89"/>
</linearGradient>
<linearGradient id="paint3_linear_1_31" x1="97.7352" y1="5.53283" x2="97.7352" y2="46.1529" gradientUnits="userSpaceOnUse">
<stop stop-color="#E50F1C"/>
<stop offset="1" stop-color="#920000" stop-opacity="0.89"/>
</linearGradient>
<linearGradient id="paint4_linear_1_31" x1="97.7352" y1="5.53283" x2="97.7352" y2="46.1529" gradientUnits="userSpaceOnUse">
<stop stop-color="#E50F1C"/>
<stop offset="1" stop-color="#920000" stop-opacity="0.89"/>
</linearGradient>
<linearGradient id="paint5_linear_1_31" x1="20.8429" y1="-16.0822" x2="20.8429" y2="83.538" gradientUnits="userSpaceOnUse">
<stop stop-color="#E50F1C"/>
<stop offset="1" stop-color="#920000" stop-opacity="0.89"/>
</linearGradient>
</defs>
</svg>
