<svg width="270" height="85" viewBox="0 0 270 85" fill="none" xmlns="http://www.w3.org/2000/svg">
<path d="M92.852 62.572C90.1827 62.572 87.6693 62.0867 85.312 61.116C82.9893 60.1453 80.9613 58.8107 79.228 57.112C77.4947 55.3787 76.1253 53.368 75.12 51.08C74.1493 48.7573 73.664 46.2613 73.664 43.592C73.664 40.9227 74.1667 38.444 75.172 36.156C76.1773 33.868 77.564 31.8747 79.332 30.176C81.1347 28.4427 83.232 27.108 85.624 26.172C88.016 25.2013 90.5813 24.716 93.32 24.716C96.4747 24.716 99.3347 25.288 101.9 26.432C104.5 27.576 106.649 29.1533 108.348 31.164L102.784 36.728C101.605 35.2027 100.219 34.0587 98.624 33.296C97.0293 32.5333 95.2267 32.152 93.216 32.152C91.0667 32.152 89.1427 32.6373 87.444 33.608C85.7453 34.544 84.4107 35.8787 83.44 37.612C82.504 39.3107 82.036 41.304 82.036 43.592C82.036 45.88 82.504 47.8907 83.44 49.624C84.376 51.3573 85.6587 52.7093 87.288 53.68C88.9173 54.6507 90.7893 55.136 92.904 55.136C95.0533 55.136 96.8733 54.7373 98.364 53.94C99.8893 53.108 101.051 51.9293 101.848 50.404C102.68 48.844 103.096 46.9547 103.096 44.736L108.504 48.376L92.124 48.116V41.2H111.416V42.396C111.416 46.7987 110.619 50.508 109.024 53.524C107.464 56.5053 105.28 58.7587 102.472 60.284C99.6987 61.8093 96.492 62.572 92.852 62.572ZM112.034 62L126.594 25.288H133.978L148.382 62H139.75L128.726 31.528H131.69L120.51 62H112.034ZM120.302 55.344V48.688H140.322V55.344H120.302ZM152.266 62V25.288H158.09L172.546 47.804H169.582L183.986 25.288H189.862V62H181.698V39.068L183.154 39.432L173.742 54.096H168.334L158.974 39.432L160.378 39.068V62H152.266ZM194.147 62L208.707 25.288H216.091L230.495 62H221.863L210.839 31.528H213.803L202.623 62H194.147ZM202.415 55.344V48.688H222.435V55.344H202.415ZM234.38 62V25.288H240.1L242.544 32.62V62H234.38ZM259.704 62L238.072 34.284L240.1 25.288L261.732 53.004L259.704 62ZM259.704 62L257.52 54.668V25.288H265.684V62H259.704Z" fill="white"/>
<path fill-rule="evenodd" clip-rule="evenodd" d="M28 70C43.464 70 56 57.9117 56 43C56 28.0883 43.464 16 28 16C12.536 16 0 28.0883 0 43C0 57.9117 12.536 70 28 70ZM36.735 28.5777C37.1602 27.1214 35.6945 26.2602 34.356 27.1798L15.6704 40.0159C14.2187 41.0132 14.447 43 16.0134 43H20.9338V42.9633H30.5235L22.7097 45.6218L19.265 57.4223C18.8398 58.8787 20.3053 59.7399 21.644 58.8202L40.3297 45.9842C41.7813 44.9869 41.5528 43 39.9867 43H32.525L36.735 28.5777Z" fill="white"/>
</svg>
