<svg width="76" height="81" viewBox="0 0 76 81" fill="none" xmlns="http://www.w3.org/2000/svg">
<path opacity="0.2" d="M61.7411 15.0461C54.1365 23.2224 53.7992 35.7782 60.954 44.351C52.7776 36.7464 40.2218 36.4091 31.649 43.5639C39.2537 35.3875 39.5908 22.8317 32.4361 14.2589C40.6124 21.8636 53.1683 22.2008 61.7411 15.0461Z" fill="black"/>
<path d="M38.0794 53.8438C33.3573 58.9209 33.1479 66.7174 37.5906 72.0407C32.5135 67.3186 24.717 67.1091 19.3937 71.5519C24.1159 66.4748 24.3252 58.6783 19.8825 53.355C24.9596 58.0771 32.7562 58.2865 38.0794 53.8438Z" fill="white"/>
<path d="M38.0794 53.8438C33.3573 58.9209 33.1479 66.7174 37.5906 72.0407C32.5135 67.3186 24.717 67.1091 19.3937 71.5519C24.1159 66.4748 24.3252 58.6783 19.8825 53.355C24.9596 58.0771 32.7562 58.2865 38.0794 53.8438Z" fill="url(#paint0_linear_1_290)"/>
<path d="M18.7613 22.7599C15.5444 26.2186 15.4017 31.53 18.4283 35.1565C14.9695 31.9395 9.65822 31.7969 6.03174 34.8235C9.24868 31.3647 9.3913 26.0534 6.36471 22.4269C9.82346 25.6438 15.1349 25.7865 18.7613 22.7599Z" fill="white"/>
<path d="M18.7613 22.7599C15.5444 26.2186 15.4017 31.53 18.4283 35.1565C14.9695 31.9395 9.65822 31.7969 6.03174 34.8235C9.24868 31.3647 9.3913 26.0534 6.36471 22.4269C9.82346 25.6438 15.1349 25.7865 18.7613 22.7599Z" fill="url(#paint1_linear_1_290)"/>
<defs>
<linearGradient id="paint0_linear_1_290" x1="45.171" y1="46.9937" x2="0.842202" y2="89.0034" gradientUnits="userSpaceOnUse">
<stop stop-color="#E50F1C"/>
<stop offset="1" stop-color="#920000" stop-opacity="0.89"/>
</linearGradient>
<linearGradient id="paint1_linear_1_290" x1="23.5924" y1="18.0933" x2="-6.60644" y2="46.7123" gradientUnits="userSpaceOnUse">
<stop stop-color="#E50F1C"/>
<stop offset="1" stop-color="#920000" stop-opacity="0.89"/>
</linearGradient>
</defs>
</svg>
