<svg width="32" height="25" viewBox="0 0 32 25" fill="none" xmlns="http://www.w3.org/2000/svg">
<path d="M31.401 2.96224C30.2288 3.47158 28.9885 3.80715 27.7194 3.95833C29.0532 3.17733 30.0562 1.93657 30.5403 0.468759C29.2793 1.20612 27.902 1.72349 26.4674 1.9987C25.8633 1.36559 25.1368 0.861925 24.332 0.518333C23.5272 0.174741 22.6609 -0.00160633 21.7858 1.1025e-05C18.2429 1.1025e-05 15.3757 2.82552 15.3757 6.30858C15.3732 6.79307 15.4287 7.2761 15.541 7.74738C13.0005 7.62828 10.5128 6.98019 8.23702 5.84456C5.96129 4.70893 3.94765 3.11078 2.32494 1.15235C1.75566 2.11206 1.45459 3.20706 1.4532 4.32291C1.4532 6.51041 2.59447 8.444 4.31778 9.5768C3.29677 9.55257 2.29668 9.28234 1.40242 8.78905V8.86717C1.40242 11.9271 3.61596 14.4726 6.54563 15.052C5.99471 15.1989 5.427 15.2733 4.85684 15.2734C4.45227 15.2741 4.04862 15.2349 3.65176 15.1562C4.46621 17.6627 6.83665 19.4856 9.64458 19.5377C7.36293 21.2961 4.56167 22.2465 1.68107 22.2395C1.16975 22.2388 0.658911 22.2083 0.151123 22.1484C3.08157 24.0196 6.48798 25.0094 9.96489 24.9999C21.7721 24.9999 28.2226 15.3841 28.2226 7.04426C28.2226 6.77082 28.2155 6.49739 28.2025 6.23046C29.4545 5.33988 30.5376 4.23314 31.401 2.96224Z" fill="white"/>
</svg>
