<svg width="34" height="25" viewBox="0 0 34 25" fill="none" xmlns="http://www.w3.org/2000/svg">
<path d="M33.5151 5.52003C33.5151 2.59042 31.3602 0.233717 28.6975 0.233717C25.0908 0.0651022 21.4126 0 17.6535 0H16.4817C12.7318 0 9.047 0.0651023 5.44033 0.234369C2.78415 0.234369 0.629255 2.6041 0.629255 5.5337C0.466499 7.8507 0.397491 10.1683 0.401397 12.486C0.394887 14.8036 0.468669 17.1234 0.622745 19.4454C0.622745 22.375 2.77764 24.7513 5.43382 24.7513C9.22278 24.9271 13.1094 25.0052 17.0611 24.9987C21.0193 25.0117 24.8951 24.9292 28.6884 24.7513C31.3511 24.7513 33.506 22.375 33.506 19.4454C33.6622 17.1213 33.7338 14.8036 33.7273 12.4795C33.7421 10.1618 33.6713 7.84202 33.5151 5.52003ZM13.8776 18.8725V6.07991L23.3175 12.473L13.8776 18.8725Z" fill="white"/>
</svg>
